<svg width="512" height="512" viewBox="0 0 512 512" fill="none" xmlns="http://www.w3.org/2000/svg">
<rect width="512" height="512" rx="100" fill="#17191C"/>
<path d="M151.772 342.328C129.756 342.328 110.897 338.915 95.196 332.088C79.6653 325.091 67.7187 315.192 59.356 302.392C51.164 289.592 47.068 274.232 47.068 256.312C47.068 238.221 51.164 222.776 59.356 209.976C67.7187 197.176 79.6653 187.363 95.196 180.536C110.897 173.539 129.756 170.04 151.772 170.04C173.959 170.04 192.817 173.539 208.348 180.536C223.879 187.363 235.74 197.176 243.932 209.976C252.295 222.776 256.476 238.221 256.476 256.312C256.476 274.232 252.295 289.592 243.932 302.392C235.74 315.192 223.879 325.091 208.348 332.088C192.817 338.915 173.959 342.328 151.772 342.328ZM151.772 312.888C165.425 312.888 177.372 310.84 187.612 306.744C198.023 302.648 206.129 296.419 211.932 288.056C217.905 279.693 220.892 269.112 220.892 256.312C220.892 243.512 217.905 232.931 211.932 224.568C206.129 216.205 198.023 209.976 187.612 205.88C177.372 201.613 165.425 199.48 151.772 199.48C138.289 199.48 126.257 201.613 115.676 205.88C105.095 209.976 96.8173 216.205 90.844 224.568C84.8707 232.931 81.884 243.512 81.884 256.312C81.884 269.112 84.8707 279.693 90.844 288.056C96.8173 296.419 105.095 302.648 115.676 306.744C126.257 310.84 138.289 312.888 151.772 312.888ZM360.624 258.36L360.368 244.024L471.984 339H422.832L323.504 251.96L411.824 173.368H460.208L360.624 258.36ZM289.712 173.368H323.76V339H289.712V173.368Z" fill="#F0F0F0"/>
<mask id="mask0_0_1" style="mask-type:alpha" maskUnits="userSpaceOnUse" x="0" y="0" width="512" height="512">
<rect width="512" height="512" rx="100" fill="#1E2024"/>
</mask>
<g mask="url(#mask0_0_1)">
<g filter="url(#filter0_f_0_1)">
<ellipse cx="614.4" cy="-44" rx="227.328" ry="222" fill="#676DE4"/>
</g>
<g filter="url(#filter1_f_0_1)">
<ellipse cx="-118.784" cy="752" rx="352.256" ry="344" fill="#676DE4"/>
</g>
</g>
<g filter="url(#filter2_n_0_1)">
<rect width="512" height="512" rx="100" fill="#1E2024" fill-opacity="0.1"/>
</g>
<defs>
<filter id="filter0_f_0_1" x="187.072" y="-466" width="854.656" height="844" filterUnits="userSpaceOnUse" color-interpolation-filters="sRGB">
<feFlood flood-opacity="0" result="BackgroundImageFix"/>
<feBlend mode="normal" in="SourceGraphic" in2="BackgroundImageFix" result="shape"/>
<feGaussianBlur stdDeviation="100" result="effect1_foregroundBlur_0_1"/>
</filter>
<filter id="filter1_f_0_1" x="-671.04" y="208" width="1104.51" height="1088" filterUnits="userSpaceOnUse" color-interpolation-filters="sRGB">
<feFlood flood-opacity="0" result="BackgroundImageFix"/>
<feBlend mode="normal" in="SourceGraphic" in2="BackgroundImageFix" result="shape"/>
<feGaussianBlur stdDeviation="100" result="effect1_foregroundBlur_0_1"/>
</filter>
<filter id="filter2_n_0_1" x="0" y="0" width="512" height="512" filterUnits="userSpaceOnUse" color-interpolation-filters="sRGB">
<feFlood flood-opacity="0" result="BackgroundImageFix"/>
<feBlend mode="normal" in="SourceGraphic" in2="BackgroundImageFix" result="shape"/>
<feTurbulence type="fractalNoise" baseFrequency="2 2" stitchTiles="stitch" numOctaves="3" result="noise" seed="5154" />
<feColorMatrix in="noise" type="luminanceToAlpha" result="alphaNoise" />
<feComponentTransfer in="alphaNoise" result="coloredNoise1">
<feFuncA type="discrete" tableValues="1 1 1 1 1 1 1 1 1 1 1 1 1 1 1 1 1 1 1 1 1 1 1 1 1 1 1 1 1 1 1 1 1 1 1 1 1 1 1 1 1 1 1 1 1 1 1 1 1 1 1 0 0 0 0 0 0 0 0 0 0 0 0 0 0 0 0 0 0 0 0 0 0 0 0 0 0 0 0 0 0 0 0 0 0 0 0 0 0 0 0 0 0 0 0 0 0 0 0 0 "/>
</feComponentTransfer>
<feComposite operator="in" in2="shape" in="coloredNoise1" result="noise1Clipped" />
<feFlood flood-color="#000000" result="color1Flood" />
<feComposite operator="in" in2="noise1Clipped" in="color1Flood" result="color1" />
<feMerge result="effect1_noise_0_1">
<feMergeNode in="shape" />
<feMergeNode in="color1" />
</feMerge>
</filter>
</defs>
</svg>
